<svg xmlns="http://www.w3.org/2000/svg" width="478" height="154" fill="none" viewBox="0 0 478 154"><g fill="#ffffff" clip-path="url(#a)"><path d="M229.681 122.505h16.622c1.744 10.799 10.8 17.957 26.769 17.957 18.046 0 28.423-10.651 28.423-29.106v-10.295c0-.652-.326-1.008-1.009-1.008-1.008 0-1.327.652-1.832 1.505-6.327 10.473-16.295 15.621-29.58 15.621-20.938 0-40.082-14.968-40.082-43.213 0-28.244 19.106-43.212 40.082-43.212 13.455 0 23.78 5.147 30.433 16.948.505 1.009 1.009 1.328 1.832 1.328s1.15-.178 1.506-1.328l3.671-14.464h9.969v77.288c0 27.421-16.295 43.212-43.569 43.212-27.273 0-41.469-12.957-43.212-31.263l-.03.03zm14.464-48.568c0 19.106 13.314 29.935 29.105 29.935s29.105-10.799 29.105-29.935C302.355 54.8 289.042 44 273.25 44s-29.105 10.8-29.105 29.936m-51.735 45.736h-14.968V33.209h14.968V46.99c0 .831.326 1.157 1.15 1.157 1.008 0 1.335-.504 1.654-1.654 2.989-9.464 10.473-13.78 21.443-13.78h9.82v14.64h-11.979c-14.463 0-22.125 6.654-22.125 23.276v49.043zM85.04 94.229c0-14.968 9.968-24.195 31.59-25.115l31.589-1.328v-4.643c0-12.305-6.326-19.463-21.621-19.463s-21.443 7.158-21.769 16.118H89.356c.653-16.444 12.306-29.105 37.242-29.105 24.937 0 36.085 12.631 36.085 33.244v55.696h-14.464v-13.136c0-.653-.326-1.009-1.008-1.009-.683 0-1.246.178-1.654 1.157-3.902 9.138-12.484 15.472-27.273 15.472-19.938 0-33.244-11.296-33.244-27.925zm14.968 0c0 9.138 7.483 14.968 20.797 14.968 16.622 0 27.422-9.465 27.422-27.778V80.41l-31.59 1.328c-11.623.504-16.622 5-16.622 12.483zm-72.732 25.435L.002 36.546v-3.315H14.97l24.937 76.82c.327 1.009.653 1.328 1.654 1.328 1.002 0 1.328-.327 1.654-1.328l24.937-76.82H83.12v3.315l-27.273 83.118H27.246zm303.007-21.637h23.261v21.599h-23.261zm65.458-28.911 31.568-1.328v-4.65c0-12.298-6.313-19.441-21.599-19.441s-21.436 7.143-21.763 16.118h-15.45c.668-16.452 12.298-29.076 37.22-29.076s36.055 12.624 36.055 33.23v55.658h-14.285v-9.138c0-.668-.334-.994-.994-.994s-.994.163-1.662.994c-6.149 8.226-15.287 11.63-26.583 11.63-21.599 0-34.06-11.296-34.06-27.91 0-14.954 9.969-24.174 31.568-25.086zm4.154 40.045c16.614 0 27.414-9.472 27.414-27.748v-.993l-31.568 1.327c-11.63.497-16.615 4.985-16.615 12.461 0 9.138 7.477 14.953 20.769 14.953M456.214.001h21.599v19.938h-21.599zm3.323 33.23h14.953v86.395h-14.953z"/></g><defs><clipPath id="a"><path fill="#fff" d="M0 0h477.81v153.737H0z"/></clipPath></defs></svg>